<?xml version="1.0" encoding="utf-8"?>
<!-- Generator: Adobe Illustrator 26.0.3, SVG Export Plug-In . SVG Version: 6.00 Build 0)  -->
<svg version="1.1" id="Layer_1" xmlns="http://www.w3.org/2000/svg" xmlns:xlink="http://www.w3.org/1999/xlink" x="0px" y="0px"
	 viewBox="0 0 512 512" enable-background="new 0 0 512 512" xml:space="preserve">
<g>
	<g>
		<polygon fill="#33CC99" points="-3.527832,272.3398438 47.6586914,220.7910156 175.3320312,348.4638672 463.6552734,60.4760742 
			515.5488281,111.652832 175.3286133,451.5361328 		"/>
		<path fill="#1CC691" d="M463.6656494,63.9984741l48.3343201,47.6660156L175.3312836,448.0004883L-0.0000305,272.3345642
			l47.6650009-48.0016174L175.3312073,351.99823L463.6656494,63.9984741 M463.6431885,56.953949l-3.5109863,3.5069275
			L175.3332367,344.9292603L51.2005081,220.7973938l-3.5480003-3.5480042l-3.5354614,3.5604858l-47.6650009,48.0015869
			l-3.5073848,3.5321655l3.5163848,3.5230713l175.3313141,175.6659241l3.5337677,3.5405579l3.5389252-3.5354004
			l336.6687012-336.3359985l3.5637817-3.5602112l-3.586731-3.5371704l-48.3342896-47.6659851L463.6431885,56.953949
			L463.6431885,56.953949z"/>
	</g>
</g>
</svg>
