<svg height="561" viewBox="0 0 799 561" width="799" xmlns="http://www.w3.org/2000/svg" xmlns:xlink="http://www.w3.org/1999/xlink"><defs><path id="a" d="m8 0h727v497h-727c-4.418278 0-8-3.581722-8-8v-481c0-4.418278 3.581722-8 8-8z"/><filter id="b" height="119.3%" width="113.1%" x="-6.5%" y="-9.7%"><feOffset dx="0" dy="0" in="SourceAlpha" result="shadowOffsetOuter1"/><feGaussianBlur in="shadowOffsetOuter1" result="shadowBlurOuter1" stdDeviation="16"/><feColorMatrix in="shadowBlurOuter1" type="matrix" values="0 0 0 0 0   0 0 0 0 0   0 0 0 0 0  0 0 0 0.0360337409 0"/></filter><path id="c" d="m8 0h727v497h-727c-4.418278 0-8-3.581722-8-8v-481c0-4.418278 3.581722-8 8-8z"/><filter id="d" height="119.3%" width="113.1%" x="-6.5%" y="-9.7%"><feOffset dx="0" dy="0" in="SourceAlpha" result="shadowOffsetOuter1"/><feGaussianBlur in="shadowOffsetOuter1" result="shadowBlurOuter1" stdDeviation="16"/><feColorMatrix in="shadowBlurOuter1" type="matrix" values="0 0 0 0 0   0 0 0 0 0   0 0 0 0 0  0 0 0 0.0360337409 0"/></filter><rect id="e" height="254" rx="5" width="255" x="238" y="45"/><filter id="f" height="137.8%" width="137.6%" x="-18.8%" y="-18.9%"><feOffset dx="0" dy="0" in="SourceAlpha" result="shadowOffsetOuter1"/><feGaussianBlur in="shadowOffsetOuter1" result="shadowBlurOuter1" stdDeviation="16"/><feColorMatrix in="shadowBlurOuter1" type="matrix" values="0 0 0 0 0   0 0 0 0 0   0 0 0 0 0  0 0 0 0.0804461051 0"/></filter><circle id="g" cx="475" cy="62" r="4"/><filter id="h" height="212.5%" width="212.5%" x="-56.2%" y="-56.2%"><feMorphology in="SourceAlpha" operator="dilate" radius="1.5" result="shadowSpreadOuter1"/><feOffset dx="0" dy="0" in="shadowSpreadOuter1" result="shadowOffsetOuter1"/><feColorMatrix in="shadowOffsetOuter1" type="matrix" values="0 0 0 0 0   0 0 0 0 0.450980392   0 0 0 0 0.807843137  0 0 0 0.197180707 0"/></filter></defs><g fill="none" fill-rule="evenodd" transform="translate(32 32)"><use fill="#000" filter="url(#b)" xlink:href="#a"/><use fill="#fff" fill-rule="evenodd" xlink:href="#a"/><use fill="#000" filter="url(#d)" xlink:href="#c"/><use fill="#fff" fill-rule="evenodd" xlink:href="#c"/><path d="m8 0h727v45h-735v-37c0-4.418278 3.581722-8 8-8z" fill="#e4e4e4"/><g fill="#cdcdcd"><circle cx="25" cy="23" r="5"/><circle cx="42" cy="23" r="5"/><circle cx="59" cy="23" r="5"/></g><rect fill="#1cc691" height="8" rx="2" width="68" x="64" y="91"/><rect fill="#5f5f5f" fill-opacity=".38168" height="8" rx="2" width="68" x="173" y="91"/><rect fill="#5f5f5f" fill-opacity=".38168" height="8" rx="2" width="68" x="284" y="91"/><rect fill="#5f5f5f" fill-opacity=".38168" height="8" rx="2" width="68" x="656" y="91"/><path d="m64.9953219 117.5h668.0048641" opacity=".076609" stroke="#1d1d1d" stroke-linecap="square" stroke-width="2"/><path d="m577.5 144.498148v270.013725" opacity=".076609" stroke="#1d1d1d" stroke-linecap="square" stroke-width="2"/><path d="m614 147h121v113h-121c-1.656854 0-3-1.343146-3-3v-107c0-1.656854 1.343146-3 3-3z" fill="#f8f8f8"/><path d="m614 147h121v38h-124v-35c0-1.656854 1.343146-3 3-3z" fill="#e5e5e5"/><path d="m614 279h121v113h-121c-1.656854 0-3-1.343146-3-3v-107c0-1.656854 1.343146-3 3-3z" fill="#f8f8f8"/><path d="m614 279h121v38h-124v-35c0-1.656854 1.343146-3 3-3z" fill="#e5e5e5"/><path d="m629 222h106v14h-106c-3.865993 0-7-3.134007-7-7 0-3.865993 3.134007-7 7-7z" fill="#dcdcdc"/><rect fill="#b195e3" height="14" rx="7" width="82" x="622" y="222"/><path d="m629 197h106v14h-106c-3.865993 0-7-3.134007-7-7 0-3.865993 3.134007-7 7-7z" fill="#dcdcdc"/><rect fill="#0073ce" height="14" rx="7" width="28" x="622" y="197"/><g transform="translate(64 135)"><rect height="26" rx="4" stroke="#e6e6e6" stroke-width="2" width="148" x="1" y="1"/><rect height="26" rx="4" stroke="#e6e6e6" stroke-width="2" width="118" x="164" y="1"/><g transform="translate(315)"><rect fill="#f6f6f6" fill-rule="evenodd" height="28" rx="4" width="82"/><g stroke="#e6e6e6" stroke-width="2"><rect height="26" rx="4" width="80" x="1" y="1"/><path d="m40.5.99528344v25.00971516" stroke-linecap="square"/></g></g><g transform="translate(410)"><rect fill="#f6f6f6" fill-rule="evenodd" height="28" rx="4" width="82"/><g stroke="#e6e6e6" stroke-width="2"><rect height="26" rx="4" width="80" x="1" y="1"/><path d="m40.5.99528344v25.00971516" stroke-linecap="square"/></g></g><g fill="#e2e2e2"><rect height="155" opacity=".508454" rx="2" width="232" y="76"/><path d="m2 248h228c1.104569 0 2 .895431 2 2v111.862584h-232v-111.862584c0-1.104569.8954305-2 2-2z" opacity=".508454"/><path d="m251 248h228c1.104569 0 2 .895431 2 2v111.862584h-232v-111.862584c0-1.104569.895431-2 2-2z" opacity=".508454"/></g><use fill="#000" filter="url(#f)" xlink:href="#e"/><use fill="#fff" fill-rule="evenodd" xlink:href="#e"/><rect fill="#e2e2e2" height="155" opacity=".508454" rx="2" width="232" x="249" y="76"/><rect fill="#d8d8d8" fill-opacity=".631482" height="31" rx="15.5" width="92" x="249" y="248"/><rect fill="#d8d8d8" fill-opacity=".631482" height="31" rx="15.5" width="31" x="447" y="246"/><path d="m456.65 259.12h11.7l-.996775 10.798273c-.004275.046303-.043119.081727-.089619.081727h-9.527212c-.0465 0-.085344-.035424-.089619-.081727z" fill="#a3a3a3"/><path d="m456.578127 256.074507h11.825305" stroke="#a3a3a3" stroke-linejoin="round" stroke-width="2.52"/><path d="m459.536104 254.794507h5.938563" stroke="#a3a3a3" stroke-linejoin="round" stroke-width="2.52"/><rect fill="#a3a3a3" height="9" rx="2" width="55" x="268" y="259"/><rect fill="#a3a3a3" height="7" rx="2" width="55" x="249" y="58"/><rect fill="#d0d0d0" height="5" rx="1" width="46" x="173" y="11"/><path d="m265.618718 11.5304227h5.762564c.341708 0 .618718.3447848.618718.7700982 0 .2042428-.065186.4001203-.181218.5445417l-2.881282 3.5862351c-.241625.3007421-.633375.3007421-.875 0l-2.881282-3.5862351c-.241624-.300742-.241624-.7883413 0-1.0890833.116033-.1444214.273406-.2255566.4375-.2255566z" fill="#d8d8d8"/><use fill="#000" filter="url(#h)" xlink:href="#g"/><use fill="#0073ce" fill-rule="evenodd" xlink:href="#g"/></g></g></svg>