<svg id="Layer_1" data-name="Layer 1" xmlns="http://www.w3.org/2000/svg" viewBox="0 0 415.2418 149.938"><defs><style>.cls-1{fill:#1cc691;}.cls-2{fill:#515254;}</style></defs><path class="cls-1" d="M67.6338,33.1171a32.5215,32.5215,0,0,1-7.9992,21.3823l7.1819,95.4386H2.6119l6.9605-93.77A32.5723,32.5723,0,0,1,0,33.1171C0,14.8235,15.1368,0,33.8186,0S67.6338,14.8235,67.6338,33.1171M33.8186,40.6634a8.0491,8.0491,0,1,0-8.1354-8.05,8.0924,8.0924,0,0,0,8.1354,8.05M40.2377,69.48,29.109,80.6083v43.071H40.2377Z"/><path class="cls-2" d="M154.1014,111.8661a15.36,15.36,0,0,1-7.24,1.7946,11.6808,11.6808,0,0,1-7.376-2.4212,12.5022,12.5022,0,0,1-4.3385-6.2318,37.1041,37.1041,0,0,1-1.2157-10.7746V76.0042c0-.02,0-.9433.0034-2.7754,0-.5278,0-2.83-1.4541-3.5381a3.9977,3.9977,0,0,0-1.1816-.2588.85.85,0,0,1-.7628-.8343l-.0136-2.4315a.8494.8494,0,0,1,.8479-.8547h9.3137a2.4148,2.4148,0,0,1,2.428,2.4008V80.2l-.0068,15.45q0,6.9623,2.4586,9.14a8.6371,8.6371,0,0,0,5.939,2.1794,12.4986,12.4986,0,0,0,5.3873-1.4711A31.0172,31.0172,0,0,0,164.9917,99.9l.0068-2.3531.0341-22.1689V73.2288c0-.5278,0-2.83-1.4371-3.5381a3.709,3.709,0,0,0-1.1442-.2554.85.85,0,0,1-.756-.8377l-.017-2.4315a.8523.8523,0,0,1,.8513-.8547h9.1775a2.388,2.388,0,0,1,2.4008,2.3735v8.0469a1.2394,1.2394,0,0,1,.01.1634V92.493q0,5.7669-.01,10.6111c-.0034.7355,0,1.1544,0,1.25,0,.5279-.0613,3.0546,1.3791,3.7664a3.9891,3.9891,0,0,0,1.1545.2554.849.849,0,0,1,.756.8343l.017,2.445a.8517.8517,0,0,1-.8514.8514H167.355a2.385,2.385,0,0,1-2.3973-2.3736l.0136-4.5291.0068-2.4757a45.1336,45.1336,0,0,1-10.8767,8.7382"/><path class="cls-2" d="M197.9461,109.2579a14.2132,14.2132,0,0,0,5.9559,1.3281q4.8578,0,9.0481-5.21,4.1886-5.21,4.192-15.1641,0-9.1689-4.192-14.0948-4.1937-4.9241-9.5316-4.9241a12.5889,12.5889,0,0,0-5.66,1.4064,21.7141,21.7141,0,0,0-4.6517,3.436,2.4034,2.4034,0,0,0-.7935,1.7776V104.269a2.411,2.411,0,0,0,.8241,1.8117,19.8479,19.8479,0,0,0,4.8084,3.1772m-14.449-57.9695c0-.5074,0-2.7208-1.4-3.4053a3.0378,3.0378,0,0,0-.5585-.1941.8472.8472,0,0,1-.647-.8139l-.017-2.35a.8516.8516,0,0,1,.8513-.8513h8.2717a2.3224,2.3224,0,0,1,2.3326,2.3088L192.3136,58V73.4335q7.1-9.6439,15.3241-9.6406,7.5241,0,13.1345,6.2795,5.6036,6.2778,5.6052,17.17,0,12.714-8.65,20.48a24.165,24.165,0,0,1-16.55,6.6711,26.63,26.63,0,0,1-8.6769-1.512,38.6456,38.6456,0,0,1-7.6689-3.6914,2.7715,2.7715,0,0,1-1.3281-2.36v-46q0-1.2873-.0034-3.293Z"/><path class="cls-2" d="M278.06,112.383a.8524.8524,0,0,1-.8548-.8513l.0137-2.3089a.8542.8542,0,0,1,.7492-.8377,3.5055,3.5055,0,0,0,1.0352-.2384c1.3928-.6879,1.3928-2.9184,1.3928-3.4292V84.52c0-1.89.0374-3.7833.0647-5.4962l-.0068-4.6211c-.01-.5244-.01-1.0386,0-1.5086,0-.6163,0-2.8264-1.3826-3.5075a2.8851,2.8851,0,0,0-.521-.1907.8407.8407,0,0,1-.6368-.8139l-.0171-2.3463a.8516.8516,0,0,1,.8514-.8513h8.1252a2.2963,2.2963,0,0,1,2.3088,2.2816v3.3815s0,.613.0034,1.8423a.5559.5559,0,0,0,.5585.5551.5672.5672,0,0,0,.4154-.1839c5.3941-5.9151,12.3309-8.8437,17.2039-8.8437a12.0514,12.0514,0,0,1,6.8686,1.924,12.9,12.9,0,0,1,4.58,6.3306q1.175,3.075,1.1715,9.4328V98.4278l.01,6.31c0,.5108,0,2.7447,1.3928,3.4326a2.7151,2.7151,0,0,0,.7526.2077.8482.8482,0,0,1,.7253.8309l.017,2.3361a.8522.8522,0,0,1-.8411.8547c-.8275.0136-1.5085.02-2.0466.02H313.51a2.1235,2.1235,0,0,1-.4155-.0375h-3.0716a1.9765,1.9765,0,0,1-1.9751-1.9853,2.3753,2.3753,0,0,1,1.6107-2.2339,1.6348,1.6348,0,0,0,.1669-.0716,3.2155,3.2155,0,0,0,1.3553-2.6834V97.9715l.0171-15.2458q0-6.4106-1.7334-9.3068-1.7265-2.8963-5.83-2.8946c-4.226,0-10.26,2.22-14.4489,6.6643V98.2507l.0034,6.3715c0,.5176,0,2.7753,1.386,3.47.0511.0239.1056.0477.17.0716a2.3753,2.3753,0,0,1,1.6107,2.2339,1.9744,1.9744,0,0,1-1.9649,1.9853H278.06"/><path class="cls-2" d="M403.7283,86.6409q-9.92,2.0126-11.4148,2.51c-3.688,1.2191-6.61,2.6153-6.8482,8.7109a8.6218,8.6218,0,0,0,2.2952,6.3442,6.9836,6.9836,0,0,0,5.2885,2.52c2.4757,0,5.6632-1.8491,9.5725-4.8152a2.774,2.774,0,0,0,1.1068-2.2135Zm8.7892,17.3537c.0034.1021.0034.18.0034.2247.0068.1873.01.33.02.4325.0988,1.4439.5585,2.37,1.369,2.7686a2.6173,2.6173,0,0,0,.64.2077.8477.8477,0,0,1,.6743.8241l.017,2.3565a.8516.8516,0,0,1-.8514.8513h-8.3363a2.3123,2.3123,0,0,1-2.3258-2.2986V104.87q-7.5292,5.7824-9.4533,6.6848a14.4906,14.4906,0,0,1-6.14,1.3281,11.05,11.05,0,0,1-8.36-3.45,12.621,12.621,0,0,1-3.2827-9.0753,11.5233,11.5233,0,0,1,1.6-6.1568,15.8209,15.8209,0,0,1,7.611-6.7937c3.96-1.638,7.3453-2.0126,18.0246-4.4134V78.72c-.0443-4.5394-.7765-9.1706-8.3841-8.7143A29.0012,29.0012,0,0,0,380.64,75.0081a.85.85,0,0,1-1.3349-.6981V71.5347q0-2.1862.8513-2.8673c3.1432-2.5064,10.9108-5.4963,18.4843-4.9923,8.4045.5585,11.4284,4.0285,12.94,9.32.46,1.6141.96,2.7924.96,7.4986V94.9976q0,3.0546-.0238,5.847Z"/><path class="cls-2" d="M354.0927,71.05a9.912,9.912,0,0,0-4.999-1.4882,11.4573,11.4573,0,0,0-8.2887,3.8072c-2.7311,2.772-4.56,6.5042-4.56,13.475q0,10.5584,4.56,16.1789,4.5564,5.6189,10.1548,5.6188a11.5412,11.5412,0,0,0,7.7642-3.4121,4.1114,4.1114,0,0,0,1.3519-3.041V81.3918a11.9635,11.9635,0,0,0-5.9832-10.342m15.8826,36.7915a2.6047,2.6047,0,0,0,.5381.1873.85.85,0,0,1,.647.8172l.017,2.2544a.8516.8516,0,0,1-.8513.8513h-7.972a2.2411,2.2411,0,0,1-2.2543-2.23v-2.1862a24.1926,24.1926,0,0,1-6.8107,5.2613,16.2761,16.2761,0,0,1-7.1479,1.5937q-7.7693,0-13.5738-6.5588-5.8026-6.5586-5.8027-16.8565a30.6467,30.6467,0,0,1,6.4259-18.8453q6.4209-8.5456,16.5262-8.5474a14.1619,14.1619,0,0,1,10.3591,4.0251V50.873c0-.5074,0-2.7311-1.3519-3.4156a3.0556,3.0556,0,0,0-.4733-.1805.8552.8552,0,0,1-.6164-.807l-.0136-2.38a.8523.8523,0,0,1,.8513-.8547h7.8936a2.2505,2.2505,0,0,1,2.2612,2.2373v58.8821c-.0034.6572-.0034,2.82,1.3485,3.4871"/><path class="cls-2" d="M238.6888,83.4061a.4089.4089,0,0,0,.1328.3439.5178.5178,0,0,0,.3644.1465h23.8988a.4834.4834,0,0,0,.4938-.4155,12.7648,12.7648,0,0,0-3.3441-10.778c-1.8389-1.8831-4.0592-2.8366-8.3261-2.8366-7.4475,0-12.3955,7.2772-13.22,13.54M236.22,108.1154c-3.8651-4.3418-5.8743-11.282-5.8743-18.171,0-7.2739,2.2816-13.9245,6.4293-18.7261a21.8783,21.8783,0,0,1,17.0779-7.6518c5.8095,0,10.24,1.9615,13.1651,5.8334,2.7277,3.61,4.11,8.7756,4.11,15.3547q0,1.19-.1464,3.3305a1.7,1.7,0,0,1-1.7061,1.58H239.5129a.494.494,0,0,0-.3507.143.4724.4724,0,0,0-.143.3507c.1055,5.4043,1.8389,9.9743,5.0229,13.2094a16.9264,16.9264,0,0,0,12.4091,4.87A47.5754,47.5754,0,0,0,268.82,106.14a1.005,1.005,0,0,1,1.2531.6606.9644.9644,0,0,1,.01.5381l-.5074,1.9274a2.4979,2.4979,0,0,1-1.3349,1.6107,36.1642,36.1642,0,0,1-15.0109,3.5144c-6.95,0-12.9131-1.6755-17.01-6.2761"/><path class="cls-2" d="M119.8619,69.1043v36.897a2.5451,2.5451,0,0,0,1.44,2.2919,2.5509,2.5509,0,0,1,1.4439,2.2952v.6674a1.4417,1.4417,0,0,1-1.4439,1.4405H108.7638a1.4243,1.4243,0,0,1-1.4269-1.4269v-.6947a2.5346,2.5346,0,0,1,1.4269-2.2815,2.5321,2.5321,0,0,0,1.4268-2.2782V70.3574a.9242.9242,0,0,0-.9262-.9228.9273.9273,0,0,1-.9263-.9263V67.3471a2.0856,2.0856,0,0,1,2.0875-2.0875h5.5916a3.8449,3.8449,0,0,1,3.8447,3.8447"/><path class="cls-2" d="M115.0409,44.0827a5.9291,5.9291,0,1,1-5.9935,5.9287,5.9625,5.9625,0,0,1,5.9935-5.9287"/></svg>